<?xml version="1.0" standalone="no"?>
<!DOCTYPE svg PUBLIC "-//W3C//DTD SVG 20010904//EN"
 "http://www.w3.org/TR/2001/REC-SVG-20010904/DTD/svg10.dtd">
<svg version="1.0" xmlns="http://www.w3.org/2000/svg"
 width="515.000000pt" height="193.000000pt" viewBox="0 0 515.000000 193.000000"
 preserveAspectRatio="xMidYMid meet">

<g transform="translate(0.000000,193.000000) scale(0.100000,-0.100000)"
fill="#000000" stroke="none">
<path d="M286 1802 c-38 -8 -7 -35 76 -67 377 -146 656 -379 714 -597 20 -78
18 -193 -6 -263 -77 -224 -325 -429 -695 -575 -96 -37 -127 -63 -88 -72 38 -8
339 11 485 32 570 81 1016 305 1149 576 32 65 34 74 34 179 0 107 -1 114 -35
179 -139 275 -576 494 -1148 576 -140 20 -444 40 -486 32z m489 -73 c580 -84
1022 -316 1127 -591 22 -59 24 -165 4 -233 -69 -229 -419 -450 -886 -559 -136
-32 -356 -64 -495 -72 l-110 -6 122 61 c206 101 332 192 443 318 106 120 150
229 150 368 0 107 -26 191 -88 286 -97 148 -269 284 -502 399 l-125 62 110 -6
c61 -4 173 -16 250 -27z"/>
<path d="M247 1693 c-2 -4 -10 -38 -17 -75 l-12 -67 -76 -13 c-64 -12 -77 -17
-77 -33 0 -16 13 -21 76 -33 l77 -13 14 -72 c11 -60 17 -72 33 -72 16 0 22 12
33 72 l14 72 68 12 c38 6 74 15 81 19 27 18 -1 36 -74 48 l-75 13 -14 72 c-9
51 -18 73 -30 75 -9 2 -18 -1 -21 -5z"/>
<path d="M537 1203 c-2 -4 -7 -21 -11 -38 -25 -107 -20 -101 -89 -114 -87 -17
-97 -21 -97 -36 0 -15 10 -19 97 -36 l61 -11 20 -72 c15 -56 23 -71 37 -71 19
0 22 7 39 106 6 36 8 37 69 48 87 17 97 21 97 36 0 14 -40 28 -117 40 -39 6
-43 9 -49 43 -16 93 -21 107 -36 110 -9 2 -18 -1 -21 -5z"/>
<path d="M2198 973 c-13 -3 -18 -14 -18 -36 -1 -466 -4 -625 -11 -639 -9 -17
-45 -18 -587 -14 l-577 3 -330 -79 c-181 -43 -346 -82 -365 -86 -19 -4 -36
-15 -38 -23 -4 -24 200 -29 1114 -30 434 -1 846 -3 917 -4 l127 -4 16 32 c9
18 124 215 255 439 132 224 239 414 239 422 0 8 -6 16 -12 18 -11 3 -134 3
-210 -1 -24 -1 -39 -22 -145 -201 -65 -110 -120 -200 -123 -200 -3 0 -5 88 -6
196 -1 157 -4 198 -15 205 -13 9 -195 10 -231 2z m679 -46 c6 -6 -426 -747
-435 -747 -4 0 -6 65 -4 145 l3 146 135 227 c126 212 137 227 167 232 39 6
126 4 134 -3z m-475 -194 c0 -109 0 -205 -1 -213 -3 -15 -11 -313 -11 -377 l0
-33 -87 0 -88 0 3 410 2 410 90 0 90 0 2 -197z m-232 -553 l0 -60 -837 1
c-461 1 -831 3 -823 6 8 2 114 28 235 58 l220 54 603 0 602 1 0 -60z"/>
<path d="M3018 973 c-10 -3 -40 -42 -68 -88 -27 -45 -57 -85 -65 -89 -8 -3
-34 -47 -58 -98 -24 -51 -90 -169 -147 -263 -211 -346 -216 -356 -197 -370 13
-10 99 -13 346 -13 181 0 339 2 350 5 13 3 37 34 63 82 23 42 71 123 108 181
36 58 70 111 74 118 16 26 -29 23 -141 -9 -115 -33 -117 -34 -144 -79 -52 -85
-44 -80 -151 -83 -54 -1 -98 -1 -98 1 0 3 161 273 178 299 6 9 97 13 359 15
194 1 360 5 370 9 24 9 108 171 100 191 -5 15 -43 16 -346 15 -188 -1 -341 1
-341 5 0 4 18 37 40 73 49 81 50 95 8 95 -18 1 -76 2 -128 4 -52 1 -103 1
-112 -1z m209 -47 c3 -3 -11 -32 -32 -65 l-36 -61 -82 -1 c-45 0 -90 -2 -99
-4 -31 -6 -29 12 7 72 25 42 42 59 61 63 32 6 174 3 181 -4z m620 -176 c-1 -3
-16 -31 -32 -62 l-29 -58 -361 -1 c-531 -1 -576 -1 -580 3 -7 8 49 117 63 120
27 5 942 3 939 -2z m-913 -327 c-49 -81 -89 -149 -90 -151 -3 -5 -204 -6 -208
-1 -2 2 37 72 87 156 l92 152 100 3 c55 2 101 0 103 -4 2 -4 -36 -74 -84 -155z
m336 -153 c-45 -71 -86 -130 -90 -130 -4 0 -17 26 -29 58 l-22 59 28 49 c27
46 33 50 108 75 44 14 82 25 84 23 2 -2 -34 -62 -79 -134z m-151 -102 c11 -28
21 -56 21 -62 0 -8 -82 -10 -292 -9 -161 2 -299 3 -305 3 -17 0 48 118 66 122
8 2 121 2 251 0 l238 -3 21 -51z"/>
<path d="M4824 965 c-6 -5 -47 -75 -90 -155 -110 -206 -107 -203 -101 -97 3
61 1 87 -7 88 -53 4 -271 -2 -277 -8 -17 -19 -399 -715 -399 -728 0 -8 8 -15
18 -16 54 -3 249 -4 260 -1 7 3 29 34 49 71 65 117 64 117 62 22 -1 -49 2 -86
9 -90 16 -9 272 -5 282 5 17 18 480 885 480 899 0 16 0 16 -164 19 -60 0 -115
-3 -122 -9z m211 -78 c-12 -23 -103 -190 -200 -372 -98 -181 -190 -351 -204
-377 l-26 -48 -75 -1 c-41 0 -82 -2 -90 -3 -56 -11 -50 2 179 426 l225 417
101 3 c55 2 103 2 107 0 3 -1 -4 -21 -17 -45z m-455 -135 c0 -6 -323 -594
-357 -651 -6 -10 -34 -13 -113 -12 -57 1 -105 3 -106 4 -1 1 36 68 81 148 45
80 99 177 120 215 102 186 167 299 175 304 12 7 200 0 200 -8z"/>
<path d="M1789 652 c-232 -229 -321 -323 -317 -334 6 -14 43 -16 331 -14 179
0 328 4 332 7 4 5 9 545 5 647 0 6 -7 12 -15 12 -8 0 -159 -143 -336 -318z
m311 -28 c0 -147 -2 -269 -4 -271 -2 -3 -502 -6 -547 -3 -4 0 118 123 270 274
151 151 277 273 279 271 2 -1 3 -123 2 -271z"/>
<path d="M1854 518 c-90 -87 -111 -114 -103 -125 13 -15 215 -19 238 -4 11 7
16 35 19 101 5 104 -2 140 -24 140 -9 0 -67 -50 -130 -112z"/>
<path d="M247 713 c-2 -5 -10 -38 -17 -75 l-12 -67 -68 -12 c-38 -6 -74 -15
-81 -19 -26 -17 2 -37 74 -54 l75 -17 14 -72 c11 -60 17 -72 33 -72 16 0 22
12 33 72 13 64 17 72 41 78 87 20 131 37 131 50 0 15 -10 19 -97 36 -61 11
-63 12 -69 48 -13 75 -25 111 -39 111 -8 0 -16 -3 -18 -7z"/>
<path d="M3628 535 c-72 -14 -142 -58 -181 -113 -26 -36 -32 -54 -35 -112 -6
-109 36 -177 142 -232 49 -25 171 -36 231 -19 60 16 126 62 160 111 41 59 48
158 15 224 -52 109 -193 169 -332 141z m192 -63 c30 -15 68 -44 85 -65 27 -35
30 -46 30 -112 0 -66 -3 -77 -31 -112 -73 -93 -223 -122 -334 -66 -30 16 -68
45 -84 66 -28 35 -31 46 -31 112 0 67 3 76 31 112 78 97 213 123 334 65z"/>
<path d="M3613 390 c-38 -23 -55 -52 -55 -95 0 -69 54 -115 135 -115 86 0 137
43 137 115 0 47 -19 79 -60 100 -41 21 -118 19 -157 -5z"/>
</g>
</svg>
