<?xml version="1.0" standalone="no"?>
<!DOCTYPE svg PUBLIC "-//W3C//DTD SVG 20010904//EN"
 "http://www.w3.org/TR/2001/REC-SVG-20010904/DTD/svg10.dtd">
<svg version="1.0" xmlns="http://www.w3.org/2000/svg"
 width="1024.000000pt" height="768.000000pt" viewBox="0 0 1024.000000 768.000000"
 preserveAspectRatio="xMidYMid meet">

<g transform="translate(0.000000,768.000000) scale(0.100000,-0.100000)"
fill="#000000" stroke="none">
<path d="M162 7524 c2 -10 36 -28 93 -48 183 -66 367 -175 450 -268 137 -152
141 -317 13 -470 -84 -101 -264 -211 -461 -282 -58 -21 -93 -40 -95 -50 -4
-19 -1 -19 128 -17 85 2 198 11 323 26 23 3 -57 -17 -178 -43 -285 -63 -275
-60 -275 -77 0 -8 3 -15 8 -15 4 -1 393 -1 866 -2 837 -1 859 -1 869 18 19 35
289 444 293 444 11 0 -39 -80 -160 -258 -121 -180 -129 -195 -112 -207 14 -11
81 -13 298 -13 l280 0 31 51 c18 28 60 94 94 146 34 52 59 99 57 103 -8 13
-35 9 -119 -18 -65 -21 -88 -34 -120 -69 -37 -40 -45 -44 -100 -48 -33 -2 -65
-2 -72 0 -7 3 13 41 54 101 37 53 70 101 74 106 4 5 134 8 289 8 154 -1 288 2
296 5 16 6 74 113 74 138 0 12 -13 15 -62 15 -35 1 -156 1 -270 2 -115 0 -208
4 -208 8 0 3 13 24 30 46 28 37 39 72 23 76 -22 4 -210 4 -221 0 -7 -2 -31
-31 -53 -63 -47 -70 -72 -80 -29 -12 17 26 30 53 30 59 0 21 -102 28 -202 15
-5 -1 -48 -63 -98 -138 -49 -76 -90 -136 -90 -133 0 3 -1 60 -1 126 -1 67 -5
127 -9 134 -10 17 -79 24 -156 15 -57 -6 -64 -9 -65 -28 l0 -22 -11 23 c-6 12
-17 22 -23 22 -7 0 -48 -30 -91 -67 -119 -102 -118 -102 -83 -44 26 42 34 66
37 117 6 90 -3 124 -49 194 -153 228 -679 410 -1187 410 -99 0 -113 -2 -110
-16z m439 -50 c412 -57 760 -223 847 -405 31 -65 30 -149 -4 -217 -103 -206
-538 -381 -1039 -418 l-90 -6 130 66 c264 133 405 292 406 457 1 76 -6 109
-36 169 -58 116 -180 221 -370 316 l-130 66 90 -6 c50 -4 138 -14 196 -22z
m1632 -598 c-29 -51 -327 -496 -332 -496 -3 0 -4 44 -1 97 l5 98 103 157 c110
167 109 166 189 159 29 -2 41 -7 36 -15z m270 -18 c-30 -51 -43 -54 -165 -49
l-27 1 21 36 c26 45 40 50 122 46 l66 -4 -17 -30z m-642 -60 c0 -51 -1 -122
-2 -158 -1 -36 -2 -121 -3 -190 l-1 -125 -60 -5 c-33 -3 -63 -4 -67 -2 -5 2
-8 131 -8 288 l0 284 70 0 70 0 1 -92z m-181 61 c0 -5 -4 -9 -10 -9 -5 0 -10
7 -10 16 0 8 5 12 10 9 6 -3 10 -10 10 -16z m-57 -161 c-1 -90 -3 -174 -3
-188 0 -23 -4 -25 -40 -24 -62 3 -62 3 -46 20 16 16 23 134 10 168 -11 29 -34
17 -120 -66 -60 -58 -84 -87 -81 -100 4 -13 -1 -18 -16 -19 -32 -2 -131 1
-134 4 -3 4 417 367 425 367 4 0 6 -73 5 -162z m57 128 c0 -3 -4 -8 -10 -11
-5 -3 -10 -1 -10 4 0 6 5 11 10 11 6 0 10 -2 10 -4z m-1 -176 c0 -83 -5 -150
-10 -150 -5 0 -9 66 -9 150 0 96 4 150 10 150 7 0 10 -53 9 -150z m1331 113
c0 -1 -8 -18 -17 -38 l-17 -35 -288 0 c-158 -1 -326 -1 -373 -1 -47 -1 -85 2
-86 6 -3 20 26 64 44 67 25 3 737 4 737 1z m-677 -152 c-10 -16 -40 -62 -68
-104 l-50 -76 -78 -3 c-43 -2 -80 -2 -82 0 -4 4 124 194 140 207 6 6 44 8 84
7 l72 -4 -18 -27z m-1058 11 c-11 -10 -53 -47 -92 -81 -40 -35 -73 -69 -73
-77 0 -11 47 -14 248 -16 299 -4 302 -3 302 25 1 20 1 21 11 4 8 -13 7 -22 -2
-33 -11 -13 -70 -15 -438 -13 -414 3 -514 8 -423 23 80 12 317 97 397 140 92
51 97 53 70 28z m1274 -204 l-62 -92 -19 43 -18 44 25 32 c22 29 84 62 123 64
7 1 -15 -40 -49 -91z m-1852 6 c-3 -3 -12 -4 -19 -1 -8 3 -5 6 6 6 11 1 17 -2
13 -5z m977 -68 l1 -36 -630 1 c-346 0 -625 2 -620 5 6 2 64 16 130 31 119 27
124 27 583 33 600 7 535 11 536 -34z m759 -8 l13 -33 -230 -5 c-127 -3 -233
-4 -236 -2 -2 1 4 18 15 37 l18 35 204 0 203 0 13 -32z"/>
<path d="M131 7433 c-6 -21 -11 -43 -11 -50 0 -7 -24 -15 -60 -19 -53 -6 -60
-9 -60 -29 0 -20 7 -23 60 -29 36 -4 60 -12 60 -19 0 -7 5 -29 11 -50 14 -52
38 -46 56 15 l13 46 63 9 c53 7 62 11 62 28 0 17 -9 21 -62 28 l-63 9 -13 46
c-18 61 -42 67 -56 15z"/>
<path d="M385 7108 c-2 -7 -9 -32 -15 -54 -10 -41 -11 -42 -67 -49 -70 -9 -83
-13 -83 -31 0 -17 5 -19 82 -34 56 -11 58 -12 70 -53 23 -81 47 -82 67 -2 11
44 11 44 72 57 96 20 93 50 -6 63 l-53 6 -14 52 c-14 51 -42 75 -53 45z"/>
<path d="M3818 6933 c-23 -4 -40 -25 -99 -121 l-71 -117 6 56 c7 67 12 64
-119 68 -62 1 -95 -2 -107 -11 -22 -17 -328 -514 -328 -533 0 -8 6 -15 13 -15
6 -1 45 -3 85 -6 116 -9 135 -3 177 64 l37 57 -5 -53 c-3 -42 -1 -54 12 -61
23 -11 218 -8 230 4 20 20 381 637 381 651 0 8 -8 14 -17 15 -10 0 -52 2 -93
3 -41 2 -87 2 -102 -1z m-19 -342 l-172 -291 -80 0 c-59 0 -78 3 -74 13 2 6
80 138 171 292 l167 280 77 5 c42 3 78 2 80 -2 2 -4 -74 -137 -169 -297z
m-203 177 c3 -3 -59 -110 -138 -238 l-143 -232 -78 -1 c-42 -1 -77 1 -77 5 0
5 63 110 140 235 l140 228 42 5 c51 6 106 5 114 -2z"/>
<path d="M137 6803 c-3 -4 -8 -27 -12 -50 l-7 -42 -59 -7 c-52 -6 -59 -9 -59
-29 0 -20 7 -23 59 -29 59 -7 59 -7 66 -44 13 -78 45 -83 64 -9 l11 45 62 9
c54 7 63 11 63 28 0 17 -9 21 -62 28 l-63 9 -13 46 c-13 43 -38 65 -50 45z"/>
<path d="M2795 6608 c-44 -16 -93 -55 -110 -88 -19 -37 -19 -113 -1 -148 20
-39 65 -78 110 -97 57 -24 152 -22 212 4 87 39 124 88 124 168 0 103 -83 166
-225 170 -44 1 -93 -3 -110 -9z m212 -49 c158 -76 80 -258 -111 -259 -111 0
-186 58 -186 146 0 49 25 86 78 114 53 27 161 27 219 -1z"/>
<path d="M2866 6529 c-50 -8 -76 -39 -76 -89 0 -77 100 -117 176 -71 101 62
25 182 -100 160z"/>
</g>
</svg>
